<?xml version="1.0" encoding="UTF-8"?>
<svg width="300px" height="298px" viewBox="0 0 300 298" version="1.1" xmlns="http://www.w3.org/2000/svg" xmlns:xlink="http://www.w3.org/1999/xlink">
    <!-- Generator: Sketch 46.1 (44463) - http://www.bohemiancoding.com/sketch -->
    <title>baguettes</title>
    <desc>Created with Sketch.</desc>
    <defs></defs>
    <g id="Page-1" stroke="none" stroke-width="1" fill="none" fill-rule="evenodd">
        <g id="baguettes" fill-rule="nonzero">
            <g id="baguette">
                <path d="M39.2315789,208.673684 C38.5894737,210.405263 37.6368421,211.994737 36.3473684,213.321053 C11.4526316,239.005263 -8.82105263,275.073684 5.2,289.094737 C19.5894737,303.484211 62.1105263,300.605263 87.8842105,274.831579 L272.094737,90.6210526 C297.868421,64.8473684 303.847368,19.2210526 289.457895,4.83684211 C275.142105,-9.47894737 237.3,9.72631579 209.910526,39.7 C209.642105,39.9894737 209.352632,40.2157895 209,40.3947368 C206.378947,41.7052632 194.305263,47.8789474 189.157895,53.0315789 C179.926316,62.2631579 175.105263,74.0263158 174.805263,85.3473684 C163.484211,85.6473684 151.721053,90.4684211 142.489474,99.7 C133.257895,108.931579 128.436842,120.694737 128.136842,132.015789 C116.815789,132.315789 105.052632,137.136842 95.8210526,146.368421 C86.5894737,155.6 81.7684211,167.363158 81.4684211,178.684211 C70.1473684,178.984211 58.3842105,183.805263 49.1526316,193.036842 C44.1157895,198.073684 41.3789474,202.868421 39.2315789,208.673684 Z" id="Shape" fill="#D99F4C"></path>
                <path d="M209.915789,39.7 C209.647368,39.9894737 209.357895,40.2157895 209.005263,40.3947368 C208.152632,40.8210526 206.247368,41.8 203.947368,43.0578947 C203.878947,44.5894737 203.9,46.0368421 204.052632,47.3105263 C205.121053,56.1736842 210.763158,63.9210526 220.368421,69.7368421 C221.221053,70.2526316 222.157895,70.5 223.089474,70.5 C224.868421,70.5 226.610526,69.5947368 227.594737,67.9631579 C229.1,65.4736842 228.305263,62.2421053 225.815789,60.7368421 C221.121053,57.8947368 215.352632,53.0421053 214.505263,46.0526316 C213.836842,40.5473684 216.342105,34.3736842 221.726316,28.0473684 C217.652632,31.6894737 213.678947,35.5789474 209.915789,39.7 Z" id="Shape" fill="#EAC494"></path>
                <path d="M183.421053,111.773684 C184.3,112.326316 185.278947,112.594737 186.242105,112.594737 C187.978947,112.594737 189.684211,111.731579 190.689474,110.157895 C192.252632,107.705263 191.526316,104.452632 189.073684,102.889474 C182.468421,98.6842105 178.331579,91.8 177.421053,83.4894737 C176.684211,76.7789474 178.047368,69.8315789 181.142105,63.4947368 C177.147368,70.4210526 175,77.9631579 174.8,85.3368421 C172.278947,85.4052632 169.742105,85.7315789 167.215789,86.2421053 C168.836842,97.0684211 174.515789,106.105263 183.421053,111.773684 Z" id="Shape" fill="#EAC494"></path>
                <path d="M136.026316,159.126316 C136.910526,159.689474 137.894737,159.963158 138.873684,159.963158 C140.6,159.963158 142.294737,159.115789 143.305263,157.552632 C144.878947,155.105263 144.173684,151.852632 141.731579,150.273684 C133.331579,144.868421 130.836842,136.836842 130.215789,131.057895 C129.5,124.363158 130.963158,117.236842 134.136842,110.715789 C130.342105,117.489474 128.321053,124.836842 128.131579,132.010526 C125.394737,132.084211 122.631579,132.431579 119.889474,133.031579 C121.305263,144.047368 126.989474,153.3 136.026316,159.126316 Z" id="Shape" fill="#EAC494"></path>
                <path d="M94.2473684,201.426316 C95.0473684,201.868421 95.9157895,202.073684 96.7684211,202.073684 C98.6315789,202.073684 100.431579,201.084211 101.389474,199.336842 C102.789474,196.789474 101.852632,193.584211 99.3052632,192.194737 C90.1315789,187.168421 84.9473684,180.942105 83.9105263,173.684211 C83.1842105,168.6 84.5684211,162.873684 87.6947368,157.026316 C83.7684211,163.9 81.6631579,171.378947 81.4684211,178.684211 C79.1526316,178.747368 76.8263158,179.047368 74.5,179.484211 C76.5684211,186.310526 81.7631579,194.589474 94.2473684,201.426316 Z" id="Shape" fill="#EAC494"></path>
                <path d="M46.3263158,243.178947 C47.2578947,243.852632 48.3368421,244.173684 49.4052632,244.173684 C51.0421053,244.173684 52.6421053,243.415789 53.6789474,241.994737 C55.3789474,239.642105 54.8526316,236.352632 52.4947368,234.647368 C43.1,227.852632 38.0526316,220.910526 37.5,214.021053 C37.4421053,213.305263 37.4473684,212.578947 37.4894737,211.852632 C37.1315789,212.357895 36.7842105,212.868421 36.3526316,213.321053 C33.6842105,216.073684 31.0842105,218.963158 28.5578947,221.915789 C31.2157895,229.415789 37.1473684,236.542105 46.3263158,243.178947 Z" id="Shape" fill="#EAC494"></path>
            </g>
            <g id="baguette-copy" transform="translate(150.000000, 150.000000) scale(-1, 1) translate(-150.000000, -150.000000) ">
                <path d="M39.2315789,208.673684 C38.5894737,210.405263 37.6368421,211.994737 36.3473684,213.321053 C11.4526316,239.005263 -8.82105263,275.073684 5.2,289.094737 C19.5894737,303.484211 62.1105263,300.605263 87.8842105,274.831579 L272.094737,90.6210526 C297.868421,64.8473684 303.847368,19.2210526 289.457895,4.83684211 C275.142105,-9.47894737 237.3,9.72631579 209.910526,39.7 C209.642105,39.9894737 209.352632,40.2157895 209,40.3947368 C206.378947,41.7052632 194.305263,47.8789474 189.157895,53.0315789 C179.926316,62.2631579 175.105263,74.0263158 174.805263,85.3473684 C163.484211,85.6473684 151.721053,90.4684211 142.489474,99.7 C133.257895,108.931579 128.436842,120.694737 128.136842,132.015789 C116.815789,132.315789 105.052632,137.136842 95.8210526,146.368421 C86.5894737,155.6 81.7684211,167.363158 81.4684211,178.684211 C70.1473684,178.984211 58.3842105,183.805263 49.1526316,193.036842 C44.1157895,198.073684 41.3789474,202.868421 39.2315789,208.673684 Z" id="Shape" fill="#D99F4C"></path>
                <path d="M209.915789,39.7 C209.647368,39.9894737 209.357895,40.2157895 209.005263,40.3947368 C208.152632,40.8210526 206.247368,41.8 203.947368,43.0578947 C203.878947,44.5894737 203.9,46.0368421 204.052632,47.3105263 C205.121053,56.1736842 210.763158,63.9210526 220.368421,69.7368421 C221.221053,70.2526316 222.157895,70.5 223.089474,70.5 C224.868421,70.5 226.610526,69.5947368 227.594737,67.9631579 C229.1,65.4736842 228.305263,62.2421053 225.815789,60.7368421 C221.121053,57.8947368 215.352632,53.0421053 214.505263,46.0526316 C213.836842,40.5473684 216.342105,34.3736842 221.726316,28.0473684 C217.652632,31.6894737 213.678947,35.5789474 209.915789,39.7 Z" id="Shape" fill="#EAC494"></path>
                <path d="M183.421053,111.773684 C184.3,112.326316 185.278947,112.594737 186.242105,112.594737 C187.978947,112.594737 189.684211,111.731579 190.689474,110.157895 C192.252632,107.705263 191.526316,104.452632 189.073684,102.889474 C182.468421,98.6842105 178.331579,91.8 177.421053,83.4894737 C176.684211,76.7789474 178.047368,69.8315789 181.142105,63.4947368 C177.147368,70.4210526 175,77.9631579 174.8,85.3368421 C172.278947,85.4052632 169.742105,85.7315789 167.215789,86.2421053 C168.836842,97.0684211 174.515789,106.105263 183.421053,111.773684 Z" id="Shape" fill="#EAC494"></path>
                <path d="M136.026316,159.126316 C136.910526,159.689474 137.894737,159.963158 138.873684,159.963158 C140.6,159.963158 142.294737,159.115789 143.305263,157.552632 C144.878947,155.105263 144.173684,151.852632 141.731579,150.273684 C133.331579,144.868421 130.836842,136.836842 130.215789,131.057895 C129.5,124.363158 130.963158,117.236842 134.136842,110.715789 C130.342105,117.489474 128.321053,124.836842 128.131579,132.010526 C125.394737,132.084211 122.631579,132.431579 119.889474,133.031579 C121.305263,144.047368 126.989474,153.3 136.026316,159.126316 Z" id="Shape" fill="#EAC494"></path>
                <path d="M94.2473684,201.426316 C95.0473684,201.868421 95.9157895,202.073684 96.7684211,202.073684 C98.6315789,202.073684 100.431579,201.084211 101.389474,199.336842 C102.789474,196.789474 101.852632,193.584211 99.3052632,192.194737 C90.1315789,187.168421 84.9473684,180.942105 83.9105263,173.684211 C83.1842105,168.6 84.5684211,162.873684 87.6947368,157.026316 C83.7684211,163.9 81.6631579,171.378947 81.4684211,178.684211 C79.1526316,178.747368 76.8263158,179.047368 74.5,179.484211 C76.5684211,186.310526 81.7631579,194.589474 94.2473684,201.426316 Z" id="Shape" fill="#EAC494"></path>
                <path d="M46.3263158,243.178947 C47.2578947,243.852632 48.3368421,244.173684 49.4052632,244.173684 C51.0421053,244.173684 52.6421053,243.415789 53.6789474,241.994737 C55.3789474,239.642105 54.8526316,236.352632 52.4947368,234.647368 C43.1,227.852632 38.0526316,220.910526 37.5,214.021053 C37.4421053,213.305263 37.4473684,212.578947 37.4894737,211.852632 C37.1315789,212.357895 36.7842105,212.868421 36.3526316,213.321053 C33.6842105,216.073684 31.0842105,218.963158 28.5578947,221.915789 C31.2157895,229.415789 37.1473684,236.542105 46.3263158,243.178947 Z" id="Shape" fill="#EAC494"></path>
            </g>
        </g>
    </g>
</svg>