<?xml version="1.0" encoding="UTF-8"?>
<svg width="59px" height="59px" viewBox="0 0 59 59" version="1.1" xmlns="http://www.w3.org/2000/svg" xmlns:xlink="http://www.w3.org/1999/xlink">
    <!-- Generator: Sketch 46.1 (44463) - http://www.bohemiancoding.com/sketch -->
    <title>baguettes</title>
    <desc>Created with Sketch.</desc>
    <defs>
        <filter x="-3.5%" y="-1.8%" width="107.0%" height="107.0%" filterUnits="objectBoundingBox" id="filter-1">
            <feOffset dx="0" dy="1" in="SourceAlpha" result="shadowOffsetOuter1"></feOffset>
            <feGaussianBlur stdDeviation="0.5" in="shadowOffsetOuter1" result="shadowBlurOuter1"></feGaussianBlur>
            <feColorMatrix values="0 0 0 0 0   0 0 0 0 0   0 0 0 0 0  0 0 0 0.5 0" type="matrix" in="shadowBlurOuter1" result="shadowMatrixOuter1"></feColorMatrix>
            <feMerge>
                <feMergeNode in="shadowMatrixOuter1"></feMergeNode>
                <feMergeNode in="SourceGraphic"></feMergeNode>
            </feMerge>
        </filter>
        <filter x="-3.5%" y="-1.8%" width="107.0%" height="107.0%" filterUnits="objectBoundingBox" id="filter-2">
            <feOffset dx="0" dy="1" in="SourceAlpha" result="shadowOffsetOuter1"></feOffset>
            <feGaussianBlur stdDeviation="0.5" in="shadowOffsetOuter1" result="shadowBlurOuter1"></feGaussianBlur>
            <feColorMatrix values="0 0 0 0 0   0 0 0 0 0   0 0 0 0 0  0 0 0 0.5 0" type="matrix" in="shadowBlurOuter1" result="shadowMatrixOuter1"></feColorMatrix>
            <feMerge>
                <feMergeNode in="shadowMatrixOuter1"></feMergeNode>
                <feMergeNode in="SourceGraphic"></feMergeNode>
            </feMerge>
        </filter>
    </defs>
    <g id="Page-1" stroke="none" stroke-width="1" fill="none" fill-rule="evenodd">
        <g id="baguettes" transform="translate(1.000000, 0.000000)" fill-rule="nonzero">
            <g id="baguette" filter="url(#filter-1)">
                <path d="M7.454,39.648 C7.332,39.977 7.151,40.279 6.906,40.531 C2.176,45.411 -1.676,52.264 0.988,54.928 C3.722,57.662 11.801,57.115 16.698,52.218 L51.698,17.218 C56.595,12.321 57.731,3.652 54.997,0.919 C52.277,-1.801 45.087,1.848 39.883,7.543 C39.832,7.598 39.777,7.641 39.71,7.675 C39.212,7.924 36.918,9.097 35.94,10.076 C34.186,11.83 33.27,14.065 33.213,16.216 C31.062,16.273 28.827,17.189 27.073,18.943 C25.319,20.697 24.403,22.932 24.346,25.083 C22.195,25.14 19.96,26.056 18.206,27.81 C16.452,29.564 15.536,31.799 15.479,33.95 C13.328,34.007 11.093,34.923 9.339,36.677 C8.382,37.634 7.862,38.545 7.454,39.648 Z" id="Shape" fill="#D99F4C"></path>
                <path d="M39.884,7.543 C39.833,7.598 39.778,7.641 39.711,7.675 C39.549,7.756 39.187,7.942 38.75,8.181 C38.737,8.472 38.741,8.747 38.77,8.989 C38.973,10.673 40.045,12.145 41.87,13.25 C42.032,13.348 42.21,13.395 42.387,13.395 C42.725,13.395 43.056,13.223 43.243,12.913 C43.529,12.44 43.378,11.826 42.905,11.54 C42.013,11 40.917,10.078 40.756,8.75 C40.629,7.704 41.105,6.531 42.128,5.329 C41.354,6.021 40.599,6.76 39.884,7.543 Z" id="Shape" fill="#EAC494"></path>
                <path d="M34.85,21.237 C35.017,21.342 35.203,21.393 35.386,21.393 C35.716,21.393 36.04,21.229 36.231,20.93 C36.528,20.464 36.39,19.846 35.924,19.549 C34.669,18.75 33.883,17.442 33.71,15.863 C33.57,14.588 33.829,13.268 34.417,12.064 C33.658,13.38 33.25,14.813 33.212,16.214 C32.733,16.227 32.251,16.289 31.771,16.386 C32.079,18.443 33.158,20.16 34.85,21.237 Z" id="Shape" fill="#EAC494"></path>
                <path d="M25.845,30.234 C26.013,30.341 26.2,30.393 26.386,30.393 C26.714,30.393 27.036,30.232 27.228,29.935 C27.527,29.47 27.393,28.852 26.929,28.552 C25.333,27.525 24.859,25.999 24.741,24.901 C24.605,23.629 24.883,22.275 25.486,21.036 C24.765,22.323 24.381,23.719 24.345,25.082 C23.825,25.096 23.3,25.162 22.779,25.276 C23.048,27.369 24.128,29.127 25.845,30.234 Z" id="Shape" fill="#EAC494"></path>
                <path d="M17.907,38.271 C18.059,38.355 18.224,38.394 18.386,38.394 C18.74,38.394 19.082,38.206 19.264,37.874 C19.53,37.39 19.352,36.781 18.868,36.517 C17.125,35.562 16.14,34.379 15.943,33 C15.805,32.034 16.068,30.946 16.662,29.835 C15.916,31.141 15.516,32.562 15.479,33.95 C15.039,33.962 14.597,34.019 14.155,34.102 C14.548,35.399 15.535,36.972 17.907,38.271 Z" id="Shape" fill="#EAC494"></path>
                <path d="M8.802,46.204 C8.979,46.332 9.184,46.393 9.387,46.393 C9.698,46.393 10.002,46.249 10.199,45.979 C10.522,45.532 10.422,44.907 9.974,44.583 C8.189,43.292 7.23,41.973 7.125,40.664 C7.114,40.528 7.115,40.39 7.123,40.252 C7.055,40.348 6.989,40.445 6.907,40.531 C6.4,41.054 5.906,41.603 5.426,42.164 C5.931,43.589 7.058,44.943 8.802,46.204 Z" id="Shape" fill="#EAC494"></path>
            </g>
            <g id="baguette-copy" filter="url(#filter-2)" transform="translate(28.500000, 28.500000) scale(-1, 1) translate(-28.500000, -28.500000) ">
                <path d="M7.454,39.648 C7.332,39.977 7.151,40.279 6.906,40.531 C2.176,45.411 -1.676,52.264 0.988,54.928 C3.722,57.662 11.801,57.115 16.698,52.218 L51.698,17.218 C56.595,12.321 57.731,3.652 54.997,0.919 C52.277,-1.801 45.087,1.848 39.883,7.543 C39.832,7.598 39.777,7.641 39.71,7.675 C39.212,7.924 36.918,9.097 35.94,10.076 C34.186,11.83 33.27,14.065 33.213,16.216 C31.062,16.273 28.827,17.189 27.073,18.943 C25.319,20.697 24.403,22.932 24.346,25.083 C22.195,25.14 19.96,26.056 18.206,27.81 C16.452,29.564 15.536,31.799 15.479,33.95 C13.328,34.007 11.093,34.923 9.339,36.677 C8.382,37.634 7.862,38.545 7.454,39.648 Z" id="Shape" fill="#D99F4C"></path>
                <path d="M39.884,7.543 C39.833,7.598 39.778,7.641 39.711,7.675 C39.549,7.756 39.187,7.942 38.75,8.181 C38.737,8.472 38.741,8.747 38.77,8.989 C38.973,10.673 40.045,12.145 41.87,13.25 C42.032,13.348 42.21,13.395 42.387,13.395 C42.725,13.395 43.056,13.223 43.243,12.913 C43.529,12.44 43.378,11.826 42.905,11.54 C42.013,11 40.917,10.078 40.756,8.75 C40.629,7.704 41.105,6.531 42.128,5.329 C41.354,6.021 40.599,6.76 39.884,7.543 Z" id="Shape" fill="#EAC494"></path>
                <path d="M34.85,21.237 C35.017,21.342 35.203,21.393 35.386,21.393 C35.716,21.393 36.04,21.229 36.231,20.93 C36.528,20.464 36.39,19.846 35.924,19.549 C34.669,18.75 33.883,17.442 33.71,15.863 C33.57,14.588 33.829,13.268 34.417,12.064 C33.658,13.38 33.25,14.813 33.212,16.214 C32.733,16.227 32.251,16.289 31.771,16.386 C32.079,18.443 33.158,20.16 34.85,21.237 Z" id="Shape" fill="#EAC494"></path>
                <path d="M25.845,30.234 C26.013,30.341 26.2,30.393 26.386,30.393 C26.714,30.393 27.036,30.232 27.228,29.935 C27.527,29.47 27.393,28.852 26.929,28.552 C25.333,27.525 24.859,25.999 24.741,24.901 C24.605,23.629 24.883,22.275 25.486,21.036 C24.765,22.323 24.381,23.719 24.345,25.082 C23.825,25.096 23.3,25.162 22.779,25.276 C23.048,27.369 24.128,29.127 25.845,30.234 Z" id="Shape" fill="#EAC494"></path>
                <path d="M17.907,38.271 C18.059,38.355 18.224,38.394 18.386,38.394 C18.74,38.394 19.082,38.206 19.264,37.874 C19.53,37.39 19.352,36.781 18.868,36.517 C17.125,35.562 16.14,34.379 15.943,33 C15.805,32.034 16.068,30.946 16.662,29.835 C15.916,31.141 15.516,32.562 15.479,33.95 C15.039,33.962 14.597,34.019 14.155,34.102 C14.548,35.399 15.535,36.972 17.907,38.271 Z" id="Shape" fill="#EAC494"></path>
                <path d="M8.802,46.204 C8.979,46.332 9.184,46.393 9.387,46.393 C9.698,46.393 10.002,46.249 10.199,45.979 C10.522,45.532 10.422,44.907 9.974,44.583 C8.189,43.292 7.23,41.973 7.125,40.664 C7.114,40.528 7.115,40.39 7.123,40.252 C7.055,40.348 6.989,40.445 6.907,40.531 C6.4,41.054 5.906,41.603 5.426,42.164 C5.931,43.589 7.058,44.943 8.802,46.204 Z" id="Shape" fill="#EAC494"></path>
            </g>
        </g>
    </g>
</svg>