<?xml version="1.0" encoding="iso-8859-1"?>
<!-- Generator: Adobe Illustrator 19.0.0, SVG Export Plug-In . SVG Version: 6.00 Build 0)  -->
<svg version="1.1" id="Layer_1" xmlns="http://www.w3.org/2000/svg" xmlns:xlink="http://www.w3.org/1999/xlink" x="0px" y="0px"
	 viewBox="0 0 512 512" style="enable-background:new 0 0 512 512;" xml:space="preserve">
<path style="fill:#FDBA55;" d="M256,0C114.615,0,0,114.615,0,256s114.615,256,256,256s256-114.615,256-256S397.385,0,256,0z
	 M256,347.493c-50.53,0-91.493-40.962-91.493-91.493c0-50.529,40.962-91.493,91.493-91.493S347.493,205.47,347.493,256
	C347.493,306.53,306.53,347.493,256,347.493z"/>
<path style="fill:#866539;" d="M256,0C114.615,0,0,114.615,0,256c0,10.55,0.652,20.948,1.893,31.164
	c19.729,22.081,48.419,35.987,80.361,35.987c34.936,0,65.981-16.633,85.667-42.407c-2.209-7.873-3.415-16.165-3.415-24.743
	c0-50.529,40.962-91.493,91.493-91.493s91.493,40.962,91.493,91.493c0,8.578-1.206,16.87-3.415,24.743
	c19.686,25.774,50.732,42.407,85.667,42.407c31.943,0,60.632-13.905,80.361-35.987C511.348,276.948,512,266.551,512,256
	C512,114.615,397.385,0,256,0z"/>
<path style="fill:#FF9596;" d="M394.411,218.416c-2.116,0-4.233-0.807-5.848-2.421l-23.799-23.797
	c-3.231-3.23-3.231-8.466-0.001-11.696c3.231-3.23,8.467-3.23,11.695,0l23.799,23.798c3.231,3.23,3.231,8.466,0.001,11.696
	C398.644,217.609,396.527,218.416,394.411,218.416z"/>
<path style="fill:#FF6376;" d="M462.568,206.517c-2.116,0-4.233-0.807-5.848-2.421l-23.799-23.797
	c-3.231-3.23-3.231-8.466-0.001-11.696c3.231-3.23,8.467-3.23,11.695,0l23.799,23.797c3.231,3.23,3.231,8.466,0.001,11.696
	C466.801,205.71,464.684,206.517,462.568,206.517z"/>
<path style="fill:#FFD553;" d="M409.618,284.761c-2.116,0-4.233-0.807-5.848-2.422l-23.799-23.797
	c-3.231-3.23-3.231-8.466-0.001-11.696c3.231-3.23,8.467-3.23,11.695,0l23.799,23.797c3.231,3.23,3.231,8.466,0.001,11.696
	C413.851,283.954,411.733,284.761,409.618,284.761z"/>
<path style="fill:#FF9596;" d="M269.813,134.872c-2.117,0-4.233-0.807-5.848-2.423l-23.799-23.798
	c-3.231-3.23-3.231-8.465-0.001-11.695c3.231-3.23,8.468-3.231,11.696,0l23.799,23.798c3.231,3.23,3.231,8.465,0.001,11.695
	C274.047,134.065,271.929,134.872,269.813,134.872z"/>
<path style="fill:#FFFFFF;" d="M81.086,206.517c-2.116,0-4.233-0.807-5.848-2.423L51.44,180.298
	c-3.231-3.23-3.231-8.465-0.001-11.696c3.231-3.23,8.468-3.231,11.695,0l23.798,23.797c3.231,3.23,3.231,8.465,0.001,11.695
	C85.319,205.71,83.202,206.517,81.086,206.517z"/>
<path style="fill:#FF9596;" d="M69.187,284.761c-2.116,0-4.233-0.807-5.849-2.423L39.54,258.541c-3.23-3.23-3.23-8.466,0-11.695
	c3.231-3.23,8.466-3.23,11.696,0l23.798,23.798c3.23,3.23,3.23,8.466,0,11.695C73.42,283.953,71.303,284.761,69.187,284.761z"/>
<path style="fill:#FFD553;" d="M154.569,168.149c-2.117,0-4.233-0.807-5.849-2.423c-3.23-3.23-3.23-8.466,0-11.695l23.799-23.799
	c3.231-3.231,8.466-3.23,11.696,0c3.23,3.23,3.23,8.466,0,11.695l-23.799,23.799C158.802,167.342,156.685,168.149,154.569,168.149z"
	/>
<path style="fill:#FBD151;" d="M208.499,63.477c-2.117,0-4.233-0.807-5.849-2.423c-3.23-3.23-3.23-8.466,0-11.695l23.799-23.799
	c3.232-3.23,8.467-3.23,11.696,0c3.23,3.23,3.23,8.466,0,11.695l-23.799,23.799C212.732,62.669,210.615,63.477,208.499,63.477z"/>
<path style="fill:#65F7C4;" d="M110.773,244.421c-2.117,0-4.233-0.807-5.849-2.423c-3.23-3.23-3.23-8.466,0-11.696l23.799-23.799
	c3.232-3.231,8.468-3.23,11.696,0c3.23,3.23,3.23,8.466,0,11.695l-23.799,23.799C115.007,243.612,112.889,244.421,110.773,244.421z"
	/>
<path style="fill:#FFD553;" d="M330.567,122.391c-2.116,0-4.233-0.807-5.849-2.423c-3.23-3.23-3.23-8.466,0-11.695l23.799-23.799
	c3.231-3.23,8.466-3.23,11.697,0c3.23,3.23,3.23,8.466,0,11.695l-23.799,23.799C334.8,121.584,332.683,122.391,330.567,122.391z"/>
<g>
	<path style="fill:#FFFFFF;" d="M392.206,144.351c-2.117,0-4.233-0.807-5.849-2.423c-3.23-3.23-3.23-8.466,0-11.695l23.799-23.799
		c3.232-3.231,8.467-3.23,11.696,0c3.23,3.23,3.23,8.466,0,11.695l-23.799,23.799C396.439,143.544,394.322,144.351,392.206,144.351z
		"/>
	<path style="fill:#FFFFFF;" d="M289.818,75.376c-2.116,0-4.233-0.807-5.848-2.423c-3.231-3.23-3.231-8.465-0.001-11.695
		l23.798-23.799c3.231-3.23,8.467-3.231,11.695,0c3.231,3.23,3.231,8.465,0.001,11.695l-23.798,23.799
		C294.051,74.569,291.934,75.376,289.818,75.376z"/>
</g>
<g>
	<path style="fill:#65F7C4;" d="M457.22,272.862c-2.116,0-4.233-0.807-5.849-2.423c-3.23-3.23-3.23-8.466,0-11.695l23.799-23.799
		c3.231-3.23,8.466-3.23,11.696,0c3.23,3.23,3.23,8.466,0,11.695l-23.799,23.799C461.453,272.055,459.337,272.862,457.22,272.862z"
		/>
	<path style="fill:#65F7C4;" d="M167.346,99.175c-2.116,0-4.233-0.807-5.849-2.423l-23.799-23.799c-3.23-3.23-3.23-8.466,0-11.695
		c3.231-3.23,8.466-3.23,11.696,0l23.799,23.799c3.23,3.23,3.23,8.466,0,11.695C171.58,98.368,169.463,99.175,167.346,99.175z"/>
</g>
<path style="fill:#FF6376;" d="M116.64,144.567c-2.116,0-4.233-0.807-5.849-2.423l-23.799-23.799c-3.23-3.23-3.23-8.466,0-11.696
	c3.231-3.23,8.466-3.23,11.696,0l23.799,23.799c3.23,3.23,3.23,8.466,0,11.696C120.873,143.759,118.756,144.567,116.64,144.567z"/>
<g>
	<circle style="fill:#3F4963;" cx="140.438" cy="385.818" r="14.976"/>
	<circle style="fill:#3F4963;" cx="371.56" cy="385.818" r="14.974"/>
</g>
<g>
	<path style="fill:#FF6376;" d="M156.46,438.157h-32.037c-4.568,0-8.27-3.703-8.27-8.27s3.702-8.27,8.27-8.27h32.037
		c4.568,0,8.27,3.703,8.27,8.27S161.027,438.157,156.46,438.157z"/>
	<path style="fill:#FF6376;" d="M387.579,438.157H355.54c-4.568,0-8.27-3.703-8.27-8.27s3.702-8.27,8.27-8.27h32.038
		c4.568,0,8.27,3.703,8.27,8.27S392.147,438.157,387.579,438.157z"/>
</g>
<g>
	<path style="fill:#3F4963;" d="M234.279,427.809c-14.898,0-27.019-12.121-27.019-27.019c0-4.567,3.702-8.27,8.27-8.27
		s8.27,3.703,8.27,8.27c0,5.778,4.701,10.479,10.479,10.479c5.778,0,10.48-4.701,10.48-10.479c0-4.567,3.702-8.27,8.27-8.27
		c4.568,0,8.27,3.703,8.27,8.27C261.299,415.688,249.179,427.809,234.279,427.809z"/>
	<path style="fill:#3F4963;" d="M271.778,427.809c-14.898,0-27.019-12.121-27.019-27.019c0-4.567,3.702-8.27,8.27-8.27
		c4.568,0,8.27,3.703,8.27,8.27c0,5.778,4.701,10.479,10.479,10.479c5.778,0,10.479-4.701,10.479-10.479
		c0-4.567,3.702-8.27,8.27-8.27s8.27,3.703,8.27,8.27C298.797,415.688,286.676,427.809,271.778,427.809z"/>
</g>
<g>
</g>
<g>
</g>
<g>
</g>
<g>
</g>
<g>
</g>
<g>
</g>
<g>
</g>
<g>
</g>
<g>
</g>
<g>
</g>
<g>
</g>
<g>
</g>
<g>
</g>
<g>
</g>
<g>
</g>
</svg>
