<?xml version="1.0" encoding="iso-8859-1"?>
<!-- Generator: Adobe Illustrator 19.0.0, SVG Export Plug-In . SVG Version: 6.00 Build 0)  -->
<svg version="1.1" id="Layer_1" xmlns="http://www.w3.org/2000/svg" xmlns:xlink="http://www.w3.org/1999/xlink" x="0px" y="0px"
	 viewBox="0 0 511.999 511.999" style="enable-background:new 0 0 511.999 511.999;" xml:space="preserve">
<g>
	<g>
		<g>
			<path d="M505.13,46.625c-0.021-17.365-5.931-32-17.536-43.52c-3.84-3.819-9.92-4.139-14.165-0.768
				c-2.027,1.621-37.547,36.864-453.376,453.269C7.551,468.129,7.53,488.481,20.01,500.939c6.059,6.059,14.101,9.387,22.656,9.387
				c8.512,0,16.533-3.328,22.571-9.344l135.787-135.808c52.309-52.309,74.965-59.563,87.445-60.459
				c23.445-1.685,43.669-10.411,58.517-25.259C414.933,211.489,505.279,113.419,505.13,46.625z"/>
			<path d="M85.823,191.286c0.064,0.064,0.085,0.149,0.149,0.213c14.507,14.272,34.475,22.699,57.707,24.405
				c12.352,0.896,27.968,8.939,47.765,24.597c1.941,1.536,4.288,2.304,6.613,2.304c2.731,0,5.483-1.045,7.552-3.136l34.069-34.091
				c3.819-3.84,4.181-9.899,0.832-14.165c-22.315-28.267-24.789-42.645-24.683-51.008c0.213-18.987-7.744-37.931-22.443-52.565
				l-2.752-2.325c0,0-0.021,0-0.021-0.021l-96-81.344c-4.501-3.819-11.243-3.243-15.04,1.237c-3.819,4.48-3.243,11.221,1.237,15.04
				l87.168,73.856l-29.312,29.312L50.218,35.147c-4.16-4.16-10.923-4.16-15.083,0c-4.16,4.16-4.16,10.923,0,15.083l88.448,88.448
				L93.631,168.63l-75.2-79.936c-4.032-4.288-10.795-4.48-15.083-0.448c-4.288,4.032-4.48,10.795-0.448,15.083l82.709,87.808
				C85.674,191.201,85.759,191.222,85.823,191.286z"/>
			<path d="M502.634,457.377L356.01,310.753c-3.499-3.52-8.939-4.139-13.141-1.536c-11.797,7.253-25.344,12.245-40.32,14.805
				c-3.925,0.661-7.147,3.477-8.363,7.275c-1.216,3.797-0.192,7.957,2.624,10.773l160.555,160.555
				c6.037,6.037,14.08,9.365,22.635,9.365c8.555,0,16.576-3.328,22.635-9.365c6.059-6.037,9.365-14.08,9.365-22.613
				S508.671,463.435,502.634,457.377z"/>
		</g>
	</g>
</g>
<g>
</g>
<g>
</g>
<g>
</g>
<g>
</g>
<g>
</g>
<g>
</g>
<g>
</g>
<g>
</g>
<g>
</g>
<g>
</g>
<g>
</g>
<g>
</g>
<g>
</g>
<g>
</g>
<g>
</g>
</svg>
